<svg width="192" height="129" viewBox="0 0 192 129" fill="none" xmlns="http://www.w3.org/2000/svg">
<path fill-rule="evenodd" clip-rule="evenodd" d="M120.095 92.336V35.5C120.095 21.969 109.126 11 95.5954 11C82.0644 11 71.0954 21.969 71.0954 35.5V92.336C71.0954 105.867 82.0644 116.836 95.5954 116.836C109.126 116.836 120.095 105.867 120.095 92.336ZM95.5954 0C75.9893 0 60.0954 15.8939 60.0954 35.5V92.336C60.0954 111.942 75.9893 127.836 95.5954 127.836C115.202 127.836 131.095 111.942 131.095 92.336V35.5C131.095 15.8939 115.202 0 95.5954 0Z" fill="white" fill-opacity="0.03"/>
<path fill-rule="evenodd" clip-rule="evenodd" d="M180.095 92.336V35.5C180.095 21.969 169.126 11 155.595 11C142.064 11 131.095 21.969 131.095 35.5V92.336C131.095 105.867 142.064 116.836 155.595 116.836C169.126 116.836 180.095 105.867 180.095 92.336ZM155.595 0C135.989 0 120.095 15.8939 120.095 35.5V92.336C120.095 111.942 135.989 127.836 155.595 127.836C175.202 127.836 191.095 111.942 191.095 92.336V35.5C191.095 15.8939 175.202 0 155.595 0Z" fill="white" fill-opacity="0.03"/>
<path fill-rule="evenodd" clip-rule="evenodd" d="M60.0946 92.7171V35.8811C60.0946 22.3501 49.1255 11.3811 35.5946 11.3811C22.0636 11.3811 11.0946 22.3501 11.0946 35.8811V92.7171C11.0946 106.248 22.0636 117.217 35.5946 117.217C49.1255 117.217 60.0946 106.248 60.0946 92.7171ZM35.5946 0.381104C15.9884 0.381104 0.0945516 16.275 0.0945516 35.8811V92.7171C0.0945516 112.323 15.9884 128.217 35.5946 128.217C55.2007 128.217 71.0946 112.323 71.0946 92.7171V35.8811C71.0946 16.275 55.2007 0.381104 35.5946 0.381104Z" fill="white" fill-opacity="0.03"/>
<path fill-rule="evenodd" clip-rule="evenodd" d="M138.276 109.624C147.844 119.192 163.356 119.192 172.924 109.624C182.492 100.056 182.492 84.5438 172.924 74.9759C163.356 65.4081 147.844 65.4081 138.276 74.9759C128.708 84.5438 128.708 100.056 138.276 109.624ZM130.498 67.1978C116.634 81.0614 116.634 103.539 130.498 117.402C144.361 131.266 166.839 131.266 180.702 117.402C194.566 103.539 194.566 81.0614 180.702 67.1978C166.839 53.3342 144.361 53.3341 130.498 67.1978Z" fill="white" fill-opacity="0.03"/>
<path fill-rule="evenodd" clip-rule="evenodd" d="M78.2759 52.8241C87.8437 62.392 103.356 62.392 112.924 52.8241C122.492 43.2563 122.492 27.7437 112.924 18.1759C103.356 8.60804 87.8437 8.60804 78.2759 18.1759C68.708 27.7437 68.708 43.2563 78.2759 52.8241ZM70.4977 10.3977C56.6341 24.2613 56.6341 46.7387 70.4977 60.6023C84.3613 74.4659 106.839 74.4659 120.702 60.6023C134.566 46.7387 134.566 24.2613 120.702 10.3977C106.839 -3.4659 84.3613 -3.4659 70.4977 10.3977Z" fill="white" fill-opacity="0.03"/>
<path fill-rule="evenodd" clip-rule="evenodd" d="M18.1759 110.024C27.7437 119.592 43.2563 119.592 52.8241 110.024C62.392 100.456 62.392 84.9437 52.8241 75.3758C43.2563 65.808 27.7437 65.808 18.1759 75.3758C8.60804 84.9437 8.60804 100.456 18.1759 110.024ZM10.3977 67.5977C-3.4659 81.4613 -3.4659 103.939 10.3977 117.802C24.2613 131.666 46.7387 131.666 60.6023 117.802C74.4659 103.939 74.4659 81.4613 60.6023 67.5977C46.7387 53.7341 24.2613 53.7341 10.3977 67.5977Z" fill="white" fill-opacity="0.03"/>
</svg>
