<svg width="40" height="40" viewBox="0 0 40 40" fill="none" xmlns="http://www.w3.org/2000/svg">
<rect width="40" height="40" rx="20" fill="white" fill-opacity="0.1"/>
<g clip-path="url(#clip0_61_462)">
<path d="M17.5 25.8334C13.3333 27.0834 13.3333 23.75 11.6667 23.3334M23.3333 28.3334V25.1084C23.3646 24.711 23.3109 24.3115 23.1758 23.9365C23.0408 23.5615 22.8274 23.2195 22.55 22.9334C25.1667 22.6417 27.9167 21.65 27.9167 17.1C27.9164 15.9366 27.4689 14.8177 26.6667 13.975C27.0465 12.9571 27.0197 11.832 26.5917 10.8334C26.5917 10.8334 25.6083 10.5417 23.3333 12.0667C21.4233 11.549 19.41 11.549 17.5 12.0667C15.225 10.5417 14.2417 10.8334 14.2417 10.8334C13.8136 11.832 13.7868 12.9571 14.1667 13.975C13.3584 14.8239 12.9104 15.9529 12.9167 17.125C12.9167 21.6417 15.6667 22.6334 18.2833 22.9584C18.0092 23.2417 17.7977 23.5795 17.6627 23.95C17.5278 24.3204 17.4723 24.7151 17.5 25.1084V28.3334" stroke="white" stroke-width="2" stroke-linecap="round" stroke-linejoin="round"/>
</g>
<defs>
<clipPath id="clip0_61_462">
<rect width="20" height="20" fill="white" transform="translate(10 10)"/>
</clipPath>
</defs>
</svg>
