<svg width="40" height="40" viewBox="0 0 40 40" fill="none" xmlns="http://www.w3.org/2000/svg">
<rect width="40" height="40" rx="20" fill="white" fill-opacity="0.1"/>
<path fill-rule="evenodd" clip-rule="evenodd" d="M19.9933 12C17.8218 12 17.5487 12 16.6961 12.0467C15.8501 12.0868 15.2639 12.2203 14.7644 12.4205C14.2315 12.6208 13.7785 12.9011 13.3322 13.335C12.9059 13.8023 12.6328 14.2428 12.4263 14.7701C12.2265 15.2774 12.0933 15.8648 12.0533 16.7059C12 17.5736 12 17.8406 12 20.01C12 22.1794 12 22.4597 12.0466 23.3141C12.0866 24.1619 12.2198 24.7493 12.4197 25.2499C12.6195 25.7839 12.8993 26.2311 13.3389 26.6783C13.8052 27.0922 14.2581 27.3659 14.7843 27.5728C15.2906 27.7731 15.8768 27.9066 16.7161 27.9466C17.582 27.9933 17.8485 28 20.02 28C22.1915 28 22.4713 28 23.3239 27.9466C24.1632 27.9066 24.7494 27.7731 25.2556 27.5728C25.7885 27.3726 26.2281 27.0922 26.6744 26.6516C27.1074 26.1977 27.3805 25.7505 27.587 25.2232C27.7868 24.7159 27.9201 24.1285 27.9534 23.2874C27.9933 22.4197 28 22.1527 28 19.9766C28 17.8006 28 17.5269 27.9534 16.6725C27.9134 15.8381 27.7802 15.2507 27.5803 14.7368C27.3805 14.2028 27.0874 13.7689 26.6478 13.3217C26.1882 12.8678 25.7552 12.6008 25.229 12.4005C24.7227 12.2003 24.1366 12.0668 23.2973 12.02C22.438 12 22.1715 12 19.9933 12ZM19.993 13.4414C22.1246 13.4414 22.3777 13.4414 23.2237 13.4881C24.003 13.5282 24.4227 13.655 24.7091 13.7685C25.0821 13.902 25.3486 14.0822 25.6283 14.3692C25.9081 14.6362 26.0813 14.9032 26.2278 15.2837C26.3344 15.5707 26.461 15.9913 26.4943 16.7722C26.5409 17.62 26.5476 17.8736 26.5476 20.0096C26.5476 22.1456 26.5476 22.3993 26.5009 23.247C26.461 24.028 26.3344 24.4485 26.2212 24.7355C26.0879 25.1093 25.9081 25.3763 25.6217 25.6567C25.3552 25.937 25.0888 26.1106 24.7091 26.2574C24.4227 26.3642 24.003 26.4911 23.2237 26.5244C22.3777 26.5712 22.1246 26.5778 19.993 26.5778C17.8615 26.5778 17.6083 26.5778 16.7624 26.5311C15.983 26.4911 15.5634 26.3642 15.2769 26.2508C14.9039 26.1173 14.6375 25.937 14.3577 25.65C14.0779 25.383 13.9048 25.116 13.7582 24.7355C13.6516 24.4485 13.5251 24.028 13.4918 23.247C13.4451 22.3993 13.4385 22.1456 13.4385 20.0096C13.4385 17.8736 13.4385 17.62 13.4851 16.7722C13.5251 15.9913 13.6516 15.5707 13.7649 15.2837C13.8981 14.9099 14.0779 14.6429 14.3644 14.3626C14.6308 14.0822 14.8973 13.9087 15.2769 13.7618C15.5634 13.655 15.983 13.5282 16.7624 13.4948C17.6083 13.4481 17.8615 13.4414 19.993 13.4414ZM15.8896 20.0102C15.8896 17.7407 17.7281 15.8984 19.9929 15.8984C22.2577 15.8984 24.0961 17.7407 24.0961 20.0102C24.0961 22.2797 22.2577 24.1221 19.9929 24.1221C17.7281 24.1221 15.8896 22.2797 15.8896 20.0102ZM19.9933 22.68C18.5279 22.68 17.3289 21.4785 17.3289 20.01C17.3289 18.5415 18.5279 17.34 19.9933 17.34C21.4588 17.34 22.6578 18.5415 22.6578 20.01C22.6578 21.4785 21.4588 22.68 19.9933 22.68ZM24.2626 16.6932C24.7889 16.6932 25.2218 16.2727 25.2218 15.7387L25.2551 15.7053C25.2551 15.178 24.8222 14.7441 24.2893 14.7441C23.7564 14.7441 23.3301 15.198 23.3301 15.732C23.3301 16.266 23.7297 16.6932 24.2626 16.6932Z" fill="white"/>
</svg>
