<svg width="40" height="40" viewBox="0 0 40 40" fill="none" xmlns="http://www.w3.org/2000/svg">
<rect width="40" height="40" rx="20" fill="white" fill-opacity="0.1"/>
<path d="M23.3333 16.6667C24.6594 16.6667 25.9312 17.1935 26.8689 18.1312C27.8066 19.0689 28.3333 20.3407 28.3333 21.6667V27.5001H25V21.6667C25 21.2247 24.8244 20.8008 24.5119 20.4882C24.1993 20.1757 23.7754 20.0001 23.3333 20.0001C22.8913 20.0001 22.4674 20.1757 22.1548 20.4882C21.8423 20.8008 21.6667 21.2247 21.6667 21.6667V27.5001H18.3333V21.6667C18.3333 20.3407 18.8601 19.0689 19.7978 18.1312C20.7355 17.1935 22.0073 16.6667 23.3333 16.6667Z" stroke="white" stroke-width="2" stroke-linecap="round" stroke-linejoin="round"/>
<path d="M15 17.5H11.6667V27.5H15V17.5Z" stroke="white" stroke-width="2" stroke-linecap="round" stroke-linejoin="round"/>
<path d="M13.3333 15.0001C14.2538 15.0001 15 14.2539 15 13.3334C15 12.4129 14.2538 11.6667 13.3333 11.6667C12.4128 11.6667 11.6667 12.4129 11.6667 13.3334C11.6667 14.2539 12.4128 15.0001 13.3333 15.0001Z" stroke="white" stroke-width="2" stroke-linecap="round" stroke-linejoin="round"/>
</svg>
