<svg width="40" height="40" viewBox="0 0 40 40" fill="none" xmlns="http://www.w3.org/2000/svg">
<rect width="40" height="40" rx="20" fill="white" fill-opacity="0.1"/>
<path d="M20.5 10C16.225 10 12 12.85 12 17.4625C12 20.3958 13.65 22.0625 14.65 22.0625C15.0625 22.0625 15.3 20.9125 15.3 20.5875C15.3 20.2 14.3125 19.375 14.3125 17.7625C14.3125 14.4125 16.8625 12.0375 20.1625 12.0375C23 12.0375 25.1 13.65 25.1 16.6125C25.1 18.825 24.2125 22.975 21.3375 22.975C20.3 22.975 19.4125 22.225 19.4125 21.15C19.4125 19.575 20.5125 18.05 20.5125 16.425C20.5125 13.6667 16.6 14.1667 16.6 17.5C16.6 18.2 16.6875 18.975 17 19.6125C16.425 22.0875 15.25 25.775 15.25 28.325C15.25 29.1125 15.3625 29.8875 15.4375 30.675C15.5792 30.8333 15.5083 30.8167 15.725 30.7375C17.825 27.8625 17.75 27.3 18.7 23.5375C19.2125 24.5125 20.5375 25.0375 21.5875 25.0375C26.0125 25.0375 28 20.725 28 16.8375C28 12.7 24.425 10 20.5 10Z" fill="white"/>
</svg>
