<svg width="40" height="40" viewBox="0 0 40 40" fill="none" xmlns="http://www.w3.org/2000/svg">
<rect width="40" height="40" rx="20" fill="white" fill-opacity="0.1"/>
<path fill-rule="evenodd" clip-rule="evenodd" d="M18.0507 23.1624V17.4246L23.0194 20.2936L18.0507 23.1624ZM29.1264 15.69C28.9064 14.8673 28.2584 14.2191 27.4355 13.9992C25.944 13.5996 19.9632 13.5996 19.9632 13.5996C19.9632 13.5996 13.9825 13.5996 12.4909 13.9992C11.668 14.2191 11.02 14.8673 10.8001 15.69C10.4004 17.1817 10.4004 20.2935 10.4004 20.2935C10.4004 20.2935 10.4004 23.4055 10.8001 24.897C11.02 25.7197 11.668 26.368 12.4909 26.5878C13.9825 26.9875 19.9632 26.9875 19.9632 26.9875C19.9632 26.9875 25.944 26.9875 27.4355 26.5878C28.2584 26.368 28.9064 25.7197 29.1264 24.897C29.5261 23.4055 29.5261 20.2935 29.5261 20.2935C29.5261 20.2935 29.5261 17.1817 29.1264 15.69Z" fill="white"/>
</svg>
